<?xml version="1.0" encoding="UTF-8"?>
<svg version="1.1" xmlns="http://www.w3.org/2000/svg" width="475" height="1061">
<path d="M0 0 C389.52199413 0 389.52199413 0 433.5 42.125 C465.04084746 74.55432204 468.34291085 118.80675264 468.24291992 161.74731445 C468.24288555 164.46186035 468.2458592 167.17640119 468.24867249 169.89094543 C468.25366225 176.44159082 468.24814005 182.9921849 468.23882218 189.54282389 C468.22833502 197.19606153 468.22851106 204.84928867 468.22899476 212.50253215 C468.22949314 226.16844684 468.22039375 239.83433795 468.20581055 253.50024414 C468.19171386 266.7173709 468.18464058 279.93447695 468.18530273 293.15161133 C468.18534269 293.96660433 468.18538265 294.78159733 468.18542381 295.62128709 C468.18546417 296.43496737 468.18550452 297.24864766 468.1855461 298.08698493 C468.18623824 313.20425222 468.18033464 328.32151084 468.17139288 343.4387753 C468.16839437 348.75603657 468.16731548 354.07329622 468.16686058 359.39055824 C468.1661741 365.87870208 468.16164925 372.36683125 468.15252777 378.85496888 C468.1479538 382.15639334 468.14538779 385.45779582 468.14612198 388.75922394 C468.15126212 425.96679177 466.99489263 462.39547585 439.4375 490.625 C422.93455318 506.3603679 392.65881217 522 369 522 C369 522.99 369 523.98 369 525 C369.57613037 525.0410083 370.15226074 525.0820166 370.74584961 525.12426758 C400.57825967 527.63463848 434.38031552 537.99712408 454.6875 561.0625 C471.49106092 582.59394455 475.17139225 610.74354336 475.13371277 637.27125549 C475.13597833 638.4587903 475.13824388 639.6463251 475.14057809 640.86984581 C475.14577929 644.13546881 475.14656881 647.40105682 475.14538372 650.6666826 C475.14517833 654.20144752 475.15071184 657.73620445 475.15544128 661.27096558 C475.16372127 668.18774144 475.166495 675.10450877 475.16705366 682.02128918 C475.16753048 687.65438604 475.16959349 693.28748012 475.17275429 698.9205761 C475.18155688 714.93777647 475.18617477 730.95497017 475.18542381 746.97217298 C475.18536388 748.26538217 475.18536388 748.26538217 475.18530273 749.5847168 C475.18526185 750.44792634 475.18522097 751.31113588 475.18517885 752.20050328 C475.18477343 766.15318132 475.19431787 780.10583224 475.2084411 794.05850244 C475.22287221 808.43047586 475.22970747 822.80243612 475.22884732 837.17441696 C475.22851747 845.22456663 475.23117033 853.27468793 475.24202538 861.32483101 C475.25121993 868.18701928 475.25323373 875.04916636 475.24651595 881.91135819 C475.24329399 885.40016853 475.24303276 888.88890029 475.2518692 892.37770271 C475.34705685 938.50638575 472.51252161 987.78361433 439.25 1023.1875 C357.84778778 1100.51960161 24.12372925 1061 0 1061 C0 710.87 0 360.74 0 0 Z M147 137 C147 241.94 147 346.88 147 455 C165.15 455 183.3 455 202 455 C202.66 456.65 203.32 458.3 204 460 C204.98821203 461.65455893 206.02165523 463.28262974 207.08984375 464.88671875 C207.7036792 465.81581055 208.31751465 466.74490234 208.94995117 467.70214844 C209.60584229 468.68731445 210.2617334 469.67248047 210.9375 470.6875 C215.63341486 477.81002005 220.27340757 484.9490123 224.6875 492.25 C229.840838 500.76901658 235.14105577 509.18888253 240.47509766 517.59570312 C243.0296352 521.62341458 245.57732028 525.65544869 248.125 529.6875 C248.61709961 530.46512695 249.10919922 531.24275391 249.61621094 532.04394531 C252.0760291 535.93498968 254.5214342 539.83403052 256.94140625 543.75 C257.6362915 544.87208862 257.6362915 544.87208862 258.34521484 546.0168457 C259.22237061 547.43532367 260.09652757 548.8556616 260.96728516 550.27807617 C261.95160528 551.86881147 262.97182126 553.43725454 264 555 C264.33 555 264.66 555 265 555 C265 521.67 265 488.34 265 454 C268.63 453.34 272.26 452.68 276 452 C290.82262986 446.2257225 299.75851187 437.94920137 306.25 423.3125 C311.25815395 409.21396241 311.43994679 395.01028815 311.40405273 380.2421875 C311.40976772 378.09832405 311.41673631 375.95446363 311.42485046 373.81060791 C311.44267006 368.03376129 311.44163497 362.25706748 311.43590808 356.48020172 C311.43280062 351.63947665 311.43892575 346.79878028 311.44494683 341.95805931 C311.45895303 330.53125966 311.45746274 319.10453484 311.44604492 307.67773438 C311.43456133 295.92607856 311.44865253 284.1746509 311.4754414 272.42302513 C311.49765451 262.29598074 311.50422333 252.16900769 311.49836498 242.04194069 C311.49500839 236.00981804 311.49732411 229.97784168 311.51461601 223.94573975 C311.5301733 218.27215893 311.52603268 212.59891433 311.50731087 206.92534637 C311.50364954 204.85508027 311.50666086 202.78478874 311.51719666 200.7145462 C311.58921489 185.38138726 310.99901215 170.1027962 302 157 C301.443125 156.13375 300.88625 155.2675 300.3125 154.375 C288.57962594 142.32502123 274.27859466 139.87269318 258 137 C221.37 137 184.74 137 147 137 Z M147 609 C147 710.97 147 812.94 147 918 C157.56 918 168.12 918 179 918 C179 952.98 179 987.96 179 1024 C181.76516821 1021.23483179 183.53445737 1019.44418171 185.48828125 1016.296875 C185.93929199 1015.57653076 186.39030273 1014.85618652 186.85498047 1014.11401367 C187.33596191 1013.33388916 187.81694336 1012.55376465 188.3125 1011.75 C188.8295752 1010.92153564 189.34665039 1010.09307129 189.87939453 1009.23950195 C191.00114938 1007.44120429 192.12052478 1005.64142066 193.23779297 1003.84033203 C196.27241292 998.94911999 199.32497706 994.069116 202.375 989.1875 C203.32306519 987.66817871 203.32306519 987.66817871 204.2902832 986.11816406 C209.0552293 978.48892025 213.87478338 970.8958612 218.71459961 963.31396484 C223.78096563 955.36737009 228.78083343 947.38004707 233.76367188 939.38085938 C234.34568359 938.44693359 234.92769531 937.51300781 235.52734375 936.55078125 C236.09308105 935.64150879 236.65881836 934.73223633 237.24169922 933.79541016 C238.47928622 931.82784959 239.73237827 929.8699989 240.99658203 927.91943359 C241.63837402 926.9289502 242.28016602 925.9384668 242.94140625 924.91796875 C243.52736572 924.02231201 244.1133252 923.12665527 244.71704102 922.20385742 C246.16770098 920.1369399 246.16770098 920.1369399 246 918 C246.5576001 918.01571045 247.1152002 918.0314209 247.68969727 918.04760742 C266.69577528 918.51031317 286.79066084 917.73285738 301.484375 903.78125 C316.1831792 886.50636671 317.45894646 865.69035717 317.40405273 844.06835938 C317.40976854 842.01316459 317.41673743 839.95797297 317.42485046 837.90278625 C317.44266102 832.36766548 317.44163672 826.83270427 317.43590808 821.29756355 C317.4327993 816.65814961 317.43892718 812.01876557 317.44494683 807.37935591 C317.45895004 796.4271946 317.45746524 785.47511137 317.44604492 774.52294922 C317.43456147 763.26207382 317.44865297 752.00143653 317.4754414 740.74059248 C317.49765939 731.03392608 317.50422224 721.32733409 317.49836498 711.62064409 C317.49500957 705.84003011 317.49731614 700.05956879 317.51461601 694.27897644 C317.5301812 688.84177406 317.52602415 683.40492239 317.50731087 677.96773338 C317.50365169 675.98454539 317.5066544 674.00133084 317.51719666 672.0181675 C317.60196134 654.73988223 316.29485892 637.20576343 304.04296875 623.8828125 C267.88058227 590.55533586 164.88044985 609 147 609 Z " fill="#3C997C" transform="translate(0,0)"/>
</svg>
